<?xml version="1.0" encoding="UTF-8" standalone="no"?>
<!-- Copyright 2017 mathsisfun.com -->
<svg xmlns="http://www.w3.org/2000/svg" width="279.3" height="211.4" version="1.1">
<defs>
<marker style="overflow:visible;" orient="auto" id="id02">
<path d="M 0,0 5,-5 -12.5,0 5,5 Z" transform="matrix(-0.8,0,0,-0.8,-10,0)" style="stroke:black; stroke-width:1pt;"/>
</marker>
<marker style="overflow:visible;" orient="auto" id="id01">
<path d="M 0,0 5,-5 -12.5,0 5,5 Z" transform="matrix(-0.8,0,0,-0.8,-10,0)" style="fill:#005c94; stroke:#005c94; stroke-width:1pt;"/>
</marker>
</defs>
<rect x="0" y="0" width="279.3" height="211.4" style="color:black; overflow:visible; fill:white; stroke-width:5.26;"/>
<g>
<rect x="74.2" y="27.1" width="18.7" height="161" style="color:black; overflow:visible; fill:#f1caff; stroke:black; stroke-width:0.8;"/>
<rect x="55.8" y="60.7" width="18.9" height="127.1" style="color:black; overflow:visible; fill:#f1caff; stroke:black; stroke-width:0.8;"/>
<rect x="92.9" y="92.3" width="18.4" height="95.7" style="color:black; overflow:visible; fill:#f1caff; stroke:black; stroke-width:0.8;"/>
<rect x="111.3" y="123.2" width="18.4" height="64.8" style="color:black; overflow:visible; fill:#f1caff; stroke:black; stroke-width:0.8;"/>
<rect x="129.7" y="163.4" width="18" height="24.9" style="color:black; overflow:visible; fill:#f1caff; stroke:black; stroke-width:0.8;"/>
<rect x="147.7" y="142.3" width="18.3" height="45.9" style="color:black; overflow:visible; fill:#f1caff; stroke:black; stroke-width:0.8;"/>
<rect x="166.5" y="170.3" width="18.4" height="17.8" style="color:black; overflow:visible; fill:#f1caff; stroke:black; stroke-width:0.8;"/>
<rect x="185" y="174.8" width="18.4" height="13.3" style="color:black; overflow:visible; fill:#f1caff; stroke:black; stroke-width:0.8;"/>
<rect x="37.6" y="168.6" width="18.2" height="19.2" style="color:black; overflow:visible; fill:#f1caff; stroke:black; stroke-width:0.8;"/>
<rect x="203.4" y="179.4" width="18.4" height="8.7" style="color:black; overflow:visible; fill:#f1caff; stroke:black; stroke-width:0.8;"/>
<rect x="222.3" y="182.6" width="18.4" height="5.5" style="color:black; overflow:visible; fill:#f1caff; stroke:black; stroke-width:0.8;"/>
</g>
<circle cx="233.4" cy="67.1" r="16.7763" style="color:black; overflow:visible; fill:#19aeff; fill-opacity:0.61; stroke-width:1.05;"/>
<g transform="matrix(0.5,0,0,0.5,830.89,-296.53)"/>
<text x="29.8" y="203" style="font-family:Verdana; font-size:14.2px; fill:#013397; stroke-width:0.5;">10</text>
<text x="66.4" y="203" style="font-family:Verdana; font-size:14.2px; fill:#013397; stroke-width:0.5;">20</text>
<text x="103.2" y="203" style="font-family:Verdana; font-size:14.2px; fill:#013397; stroke-width:0.5;">30</text>
<text x="140.2" y="203" style="font-family:Verdana; font-size:14.2px; fill:#013397; stroke-width:0.5;">40</text>
<text x="177.1" y="203" style="font-family:Verdana; font-size:14.2px; fill:#013397; stroke-width:0.5;">50</text>
<text x="212.9" y="203" style="font-family:Verdana; font-size:14.2px; fill:#013397; stroke-width:0.5;">60</text>
<text x="17" y="192.9" style="font-family:Verdana; font-size:14.2px; fill:#986601; stroke-width:0.5;">0</text>
<text x="7" y="160.4" style="font-family:Verdana; font-size:14.2px; fill:#986601; stroke-width:0.5;">10</text>
<text x="7.1" y="127.8" style="font-family:Verdana; font-size:14.2px; fill:#986601; stroke-width:0.5;">20</text>
<text x="7.1" y="95.3" style="font-family:Verdana; font-size:14.2px; fill:#986601; stroke-width:0.5;">30</text>
<text x="7.4" y="63.2" style="font-family:Verdana; font-size:14.2px; fill:#986601; stroke-width:0.5;">40</text>
<text x="7.4" y="30.8" style="font-family:Verdana; font-size:14.2px; fill:#986601; stroke-width:0.5;">50</text>
<text x="149" y="113.8" style="font-family:Georgia; font-size:16px; font-style:italic; color:black; overflow:visible; fill:#005c94; stroke-width:0.5px;">Long &quot;Tail&quot;</text>
<path d="m 179.4,119.4 31.9,51.3" style="marker-end:url(#id01); fill:none; stroke:#005c94; stroke-width:1.4;"/>
<text x="144.9" y="37.6" style="font-family:Georgia; font-size:16px; font-style:italic; color:black; overflow:visible; fill:#0e232e; stroke-width:0.5px;">Mean</text>
<path d="m 138.9,34.5 -30,3" style="marker-end:url(#id02); fill:none; stroke:black; stroke-width:0.9;"/>
<text x="218.7" y="77.9" style="font-family:Verdana; font-size:34.7px; color:black; overflow:visible; fill:black; stroke-width:0.36px;">+</text>
<g transform="translate(747.35,-799.345)"/>
<path d="m 28.5,26.9 h 7.4" style="fill:none; stroke:#999999; stroke-width:0.84;"/>
<path d="m 28.5,59.3 h 7.4" style="fill:none; stroke:#999999; stroke-width:0.84;"/>
<path d="m 28.5,91.7 h 7.4" style="fill:none; stroke:#999999; stroke-width:0.84;"/>
<path d="m 28.5,124 h 7.4" style="fill:none; stroke:#999999; stroke-width:0.84;"/>
<path d="m 28.5,156.4 h 7.4" style="fill:none; stroke:#999999; stroke-width:0.84;"/>
<path d="M 105,19.7 V 57.1" style="fill:none; stroke:black; stroke-width:1.44px;"/>
<path d="m 61.6,70 c -4.8,38.8 -7.8,57 -11.8,74.6 -4,17.6 -21.8,42 -36.9,42.4 -7.1,1 -28.1,1.1 -26.4,1.1 93.4,0 255.4,-0.2 348.8,-0.2 -25.3,0.1 -134.6,-2.5 -168.2,-27.2 -33.6,-24.7 -48.4,-42.8 -66.3,-102.5 -17.9,-59.7 -34.5,-27 -39.2,11.8 z m -79.1,118.2 c 94.7,0 261.2,0 355.9,0 -94.7,0 -261.2,0 -355.9,0 z" style="fill:#ffff3e; fill-opacity:0.54; stroke:#005c94; stroke-width:1.08; stroke-linecap:round; stroke-linejoin:round;"/>
</svg>
